<mxfile host="app.diagrams.net" modified="2024-02-28T20:24:31.945Z" agent="Mozilla/5.0 (Windows NT 10.0; Win64; x64) AppleWebKit/537.36 (KHTML, like Gecko) Chrome/122.0.0.0 Safari/537.36 Edg/122.0.0.0" version="23.1.5" etag="FcD-9ZEoBdCegwze9ZfG" type="github">
  <diagram name="PÃ¡gina-1" id="SgclFuqSsy3cK56-wonX">
    <mxGraphModel>
      <root>
        <mxCell id="0" />
        <mxCell id="1" parent="0" />
      </root>
    </mxGraphModel>
  </diagram>
</mxfile>
